<svg width="960" height="540" viewBox="0 0 960 540" xmlns="http://www.w3.org/2000/svg">
  <defs>
    <linearGradient id="bg5" x1="0" y1="0" x2="1" y2="1">
      <stop offset="0" stop-color="#050712"/>
      <stop offset="1" stop-color="#101522"/>
    </linearGradient>
    <linearGradient id="sky" x1="0" y1="0" x2="0" y2="1">
      <stop offset="0" stop-color="#1e293b"/>
      <stop offset="1" stop-color="#020617"/>
    </linearGradient>
  </defs>
  <rect width="960" height="540" fill="url(#bg5)"/>
  <rect x="0" y="0" width="960" height="540" fill="#020617" opacity="0.7"/>
  <!-- Modal webcam filling screen -->
  <rect x="0" y="0" width="960" height="540" rx="12" fill="#111827" stroke="#1f2937"/>
  <text x="60" y="102" font-family="Inter, system-ui, sans-serif" font-size="34" fill="#ffffff" font-weight="600">
    CHAMONIX - ARÊTE DE L'AIGUILLE DU MIDI
  </text>
  <text x="60" y="138" font-family="Inter, system-ui, sans-serif" font-size="19" fill="#9ca3c4">
    Distance : 1.29 km · Altitude : 3676 m (écart : +398 m)
  </text>
  <text x="60" y="162" font-family="Inter, system-ui, sans-serif" font-size="19" fill="#9ca3c4">
    Date capture : 12/12/2025 à 11:31
  </text>
  <text x="900" y="80" font-family="system-ui" font-size="28" fill="#9ca3c4">×</text>
  <!-- Image area -->
  <rect x="60" y="190" width="840" height="230" rx="14" fill="url(#sky)"/>
  <!-- Mountains -->
  <polygon points="120,400 250,220 380,400" fill="#0b1120"/>
  <polygon points="280,400 460,210 640,400" fill="#020617"/>
  <polygon points="500,400 700,250 820,400" fill="#020617"/>
  <!-- Snow caps -->
  <polygon points="480,250 505,230 530,250" fill="#e5e7eb"/>
  <polygon points="340,260 360,240 380,262" fill="#e5e7eb"/>
  <!-- Horizon fog -->
  <rect x="60" y="330" width="840" height="70" fill="#020617" opacity="0.4"/>
</svg>
