<svg width="56" height="56" version="1.1" viewBox="0 0 14.817 14.817" xmlns="http://www.w3.org/2000/svg"><g transform="translate(-6.8792 -6.8792)" fill-rule="evenodd"><circle cx="14.288" cy="14.288" r="6.8792" fill="#f5f5f5" opacity=".995" style="paint-order:normal"/><circle cx="14.288" cy="14.288" r="5.9531" fill="#242d33" opacity=".995" style="paint-order:normal"/><circle cx="14.288" cy="14.288" r="4.2333" fill="#f5f5f5" opacity=".995" style="paint-order:normal"/><g transform="rotate(-20 14.288 14.288)"><path d="m14.288 9.2604a5.5565 5.5562 0 0 0-1.1917 0.13126l1.1917 1.1917 1.1933-1.1932a5.5565 5.5562 0 0 0-1.1933-0.12971z" fill="#232e33" opacity=".995" style="paint-order:normal"/><path transform="scale(.26458)" d="m54 33a21 21 0 0 0-4.5039 0.49609l4.5039 4.5039 4.5098-4.5098a21 21 0 0 0-4.5098-0.49023z" fill="#ff8020" opacity=".995" style="paint-order:normal"/></g><g transform="rotate(250 14.288 14.288)"><path d="m14.288 9.2604a5.5565 5.5562 0 0 0-1.1917 0.13126l1.1917 1.1917 1.1933-1.1932a5.5565 5.5562 0 0 0-1.1933-0.12971z" fill="#232e33" opacity=".995" style="paint-order:normal"/><path transform="scale(.26458)" d="m54 33a21 21 0 0 0-4.5039 0.49609l4.5039 4.5039 4.5098-4.5098a21 21 0 0 0-4.5098-0.49023z" fill="#ff8020" opacity=".995" style="paint-order:normal"/></g><g transform="rotate(160 14.288 14.288)"><path d="m14.288 9.2604a5.5565 5.5562 0 0 0-1.1917 0.13126l1.1917 1.1917 1.1933-1.1932a5.5565 5.5562 0 0 0-1.1933-0.12971z" fill="#232e33" opacity=".995" style="paint-order:normal"/><path transform="scale(.26458)" d="m54 33a21 21 0 0 0-4.5039 0.49609l4.5039 4.5039 4.5098-4.5098a21 21 0 0 0-4.5098-0.49023z" fill="#ff8020" opacity=".995" style="paint-order:normal"/></g><g transform="rotate(70 14.288 14.288)"><path d="m14.288 9.2604a5.5565 5.5562 0 0 0-1.1917 0.13126l1.1917 1.1917 1.1933-1.1932a5.5565 5.5562 0 0 0-1.1933-0.12971z" fill="#232e33" opacity=".995" style="paint-order:normal"/><path transform="scale(.26458)" d="m54 33a21 21 0 0 0-4.5039 0.49609l4.5039 4.5039 4.5098-4.5098a21 21 0 0 0-4.5098-0.49023z" fill="#ff8020" opacity=".995" style="paint-order:normal"/></g></g><g transform="translate(-6.8792 -6.8792)"><g fill="#ff8020" stroke-width=".19115px" aria-label="S"><path d="m14.372 12.514q-0.83341 0-0.83341 0.55051 0 0.24467 0.20644 0.37465 0.20644 0.12998 0.96339 0.37465 0.76459 0.24467 1.0704 0.55815 0.30584 0.30584 0.30584 0.94809 0 0.81811-0.49698 1.2386t-1.2998 0.42053q-0.59638 0-1.4604-0.1835l-0.27525-0.05352 0.10704-0.81811q1.0246 0.13763 1.5674 0.13763 0.81047 0 0.81047-0.67284 0-0.24467-0.19115-0.3823-0.1835-0.13763-0.74165-0.29819-0.88693-0.25232-1.2539-0.59638-0.35936-0.35171-0.35936-0.97103 0-0.77988 0.47405-1.1622 0.47405-0.3823 1.2998-0.3823 0.5658 0 1.4374 0.15292l0.27525 0.05352-0.0841 0.8334q-1.0781-0.12234-1.5215-0.12234z"/></g></g></svg>
