<svg width="430" height="760" viewBox="0 0 430 760" xmlns="http://www.w3.org/2000/svg">
  <defs>
    <linearGradient id="bgMobileWebcam2" x1="0" y1="0" x2="1" y2="1">
      <stop offset="0" stop-color="#050712"/>
      <stop offset="1" stop-color="#101522"/>
    </linearGradient>

    <linearGradient id="skyMobile" x1="0" y1="0" x2="0" y2="1">
      <stop offset="0" stop-color="#1e293b"/>
      <stop offset="1" stop-color="#020617"/>
    </linearGradient>

    <linearGradient id="grassMobile" x1="0" y1="0" x2="0" y2="1">
      <stop offset="0" stop-color="#0b2a1a"/>
      <stop offset="1" stop-color="#04150d"/>
    </linearGradient>
  </defs>

  <!-- Backdrop -->
  <rect width="430" height="760" fill="url(#bgMobileWebcam2)"/>
  <rect x="0" y="0" width="430" height="760" fill="#020617" opacity="0.7"/>
  <rect x="0" y="0" width="430" height="760" rx="12" fill="#111827" stroke="#1f2937"/>

  <!-- Header -->
  <text x="24" y="92" font-family="Inter, system-ui, sans-serif" font-size="28" fill="#ffffff" font-weight="600">
    AIGUILLE DU MIDI
  </text>
  <text x="24" y="122" font-family="Inter, system-ui, sans-serif" font-size="16" fill="#9ca3c4">
    Distance : 1.29 km · Altitude : 3676 m (écart : +398 m)
  </text>
  <text x="24" y="144" font-family="Inter, system-ui, sans-serif" font-size="16" fill="#9ca3c4">
    Date capture : 12/12/2025 à 11:31
  </text>
  <text x="390" y="68" font-family="system-ui" font-size="26" fill="#9ca3c4">×</text>

  <!-- Scene frame -->
  <rect x="24" y="190" width="382" height="560" rx="14" fill="url(#skyMobile)"/>

  <!-- ===== Mountains (top) ===== -->
  <polygon points="24,430 120,275 210,430 24,430" fill="#0b1120" opacity="0.95"/>
  <polygon points="110,430 240,255 372,430 110,430" fill="#020617" opacity="0.95"/>
  <polygon points="220,430 312,295 406,430 220,430" fill="#020617" opacity="0.98"/>

  <!-- Snow caps -->
  <polygon points="240,290 228,274 214,292 228,304" fill="#e5e7eb" opacity="0.95"/>
  <polygon points="120,310 132,292 146,312 134,320" fill="#e5e7eb" opacity="0.9"/>

  <!-- ===== Grass (bottom) ===== -->
  <path d="M24 560 C80 542 120 565 170 552 C220 538 280 568 330 552 C365 540 392 548 406 540 L406 750 L24 750 Z"
        fill="url(#grassMobile)"/>

  <!-- Simple grass blades for texture -->
  <g stroke="#0f3d24" stroke-width="2" stroke-linecap="round" opacity="0.55">
    <line x1="52" y1="740" x2="52" y2="720"/>
    <line x1="66" y1="742" x2="66" y2="714"/>
    <line x1="80" y1="740" x2="80" y2="724"/>
    <line x1="312" y1="742" x2="312" y2="715"/>
    <line x1="326" y1="740" x2="326" y2="723"/>
    <line x1="340" y1="742" x2="340" y2="712"/>
  </g>
</svg>
