<svg width="430" height="760" viewBox="0 0 430 760" xmlns="http://www.w3.org/2000/svg">
  <defs>
    <linearGradient id="bgMobileStation" x1="0" y1="0" x2="1" y2="1">
      <stop offset="0" stop-color="#050712"/>
      <stop offset="1" stop-color="#101522"/>
    </linearGradient>
  </defs>

  <!-- Background -->
  <rect width="430" height="760" fill="url(#bgMobileStation)"/>
  <rect x="0" y="0" width="430" height="760" fill="#020617" opacity="0.7"/>
  <rect x="0" y="0" width="430" height="760" rx="12" fill="#111827" stroke="#1f2937"/>

  <!-- Header -->
  <text x="28" y="96" font-family="Inter, system-ui, sans-serif" font-size="28" fill="#ffffff" font-weight="600">
    AIGUILLE DU MIDI
  </text>
  <text x="28" y="124" font-family="Inter, system-ui, sans-serif" font-size="16" fill="#9ca3c4">
    Distance : 0,05 km · Altitude : 3845 m (écart : +3 m)
  </text>
  <text x="390" y="70" font-family="system-ui" font-size="26" fill="#9ca3c4">×</text>

  <!-- Day buttons -->
  <g font-family="Inter, system-ui, sans-serif" font-size="14">
    <rect x="210" y="156" width="30" height="26" rx="6" fill="#0e111b" stroke="#1f2937"/>
    <text x="216" y="173" fill="#9ca3c4">1 j</text>

    <rect x="248" y="156" width="32" height="26" rx="6" fill="#3b82f6" stroke="#3b82f6"/>
    <text x="256" y="173" fill="#ffffff">3 j</text>

    <rect x="288" y="156" width="32" height="26" rx="6" fill="#0e111b" stroke="#1f2937"/>
    <text x="296" y="173" fill="#9ca3c4">5 j</text>

    <rect x="328" y="156" width="40" height="26" rx="6" fill="#0e111b" stroke="#1f2937"/>
    <text x="336" y="173" fill="#9ca3c4">10 j</text>
  </g>

  <!-- ===== Chart 1 : Hauteur de neige ===== -->
  <rect x="28" y="190" width="374" height="150" rx="12" fill="#020617" stroke="#1f2937"/>
  <text x="40" y="212" font-family="Inter, system-ui, sans-serif" font-size="14" fill="#9ca3c4">
    Hauteur de neige (cm)
  </text>

  <polyline fill="none" stroke="#ffffff" stroke-width="2"
    points="48,322 86,318 124,312 162,308 200,302 238,298 276,294 314,290 352,286 386,282" />

  <!-- ===== Chart 2 : Température ===== -->
  <rect x="28" y="360" width="374" height="150" rx="12" fill="#020617" stroke="#1f2937"/>
  <text x="40" y="382" font-family="Inter, system-ui, sans-serif" font-size="14" fill="#9ca3c4">
    Température (°C)
  </text>

  <polyline fill="none" stroke="#3b82f6" stroke-width="2"
    points="48,480 86,462 124,448 162,454 200,432 238,440 276,420 314,426 352,414 386,410" />

  <!-- ===== Chart 3 : Vent ===== -->
  <rect x="28" y="530" width="374" height="150" rx="12" fill="#020617" stroke="#1f2937"/>
  <text x="40" y="552" font-family="Inter, system-ui, sans-serif" font-size="14" fill="#9ca3c4">
    Vitesse du vent (m/s)
  </text>

  <polyline fill="none" stroke="#10b981" stroke-width="2"
    points="48,662 86,646 124,652 162,632 200,640 238,620 276,632 314,612 352,620 386,608" />

</svg>
